{"accessors":[{"name":"CoffeeTableN08_1_positions","componentType":5126,"count":820,"min":[-30,0,-55],"max":[30,35.811100006103516,55],"type":"VEC3","bufferView":0,"byteOffset":0},{"name":"CoffeeTableN08_1_normals","componentType":5126,"count":820,"min":[-0.9934999942779541,-1,-0.998199999332428],"max":[0.9934999942779541,1,0.998199999332428],"type":"VEC3","bufferView":0,"byteOffset":9840},{"name":"CoffeeTableN08_1_texcoords","componentType":5126,"count":820,"min":[0.0003000000142492354,0.10029999911785126],"max":[0.8996999859809875,0.9997000098228455],"type":"VEC2","bufferView":1,"byteOffset":0},{"name":"CoffeeTableN08_1_0_indices","componentType":5123,"count":2724,"min":[0],"max":[819],"type":"SCALAR","bufferView":2,"byteOffset":0}],"asset":{"generator":"obj2gltf","version":"2.0"},"buffers":[{"name":"input","byteLength":31688,"uri":"data:application/octet-stream;base64,"}],"bufferViews":[{"name":"bufferView_0","buffer":0,"byteLength":19680,"byteOffset":0,"byteStride":12,"target":34962},{"name":"bufferView_1","buffer":0,"byteLength":6560,"byteOffset":19680,"byteStride":8,"target":34962},{"name":"bufferView_2","buffer":0,"byteLength":5448,"byteOffset":26240,"target":34963}],"materials":[{"name":"wire_229154215","pbrMetallicRoughness":{"baseColorFactor":[0.5,0.5,0.5,1],"metallicFactor":0,"roughnessFactor":1},"emissiveFactor":[0,0,0],"alphaMode":"OPAQUE","doubleSided":false}],"meshes":[{"name":"CoffeeTableN08_1","primitives":[{"attributes":{"POSITION":0,"NORMAL":1,"TEXCOORD_0":2},"indices":3,"material":0,"mode":4}]}],"nodes":[{"name":"CoffeeTableN08","mesh":0}],"scene":0,"scenes":[{"nodes":[0]}]}
